<svg xmlns="http://www.w3.org/2000/svg" width="600" height="523.82" viewBox="0 0 600 523.82"><path d="M573.62 179.454l-26.124 12.4-34.136 16.174c.46 4.388.663 8.878.663 13.369 0 5.816-.357 11.531-1.071 17.144-10.664 84.497-99.09 150.37-206.6 150.37-103.478 0-189.301-61.077-205.068-140.93-1.786-8.675-2.653-17.553-2.653-26.584 0-2.96.102-5.92.255-8.828L64.393 196.19l-31.737-15.052-13.318 28.064 43.32 20.512c4.031 79.037 65.924 146.032 152.462 174.198 28.166 9.185 58.985 14.236 91.233 14.236 28.267 0 55.412-3.878 80.67-11.021 95.059-26.84 163.228-99.856 163.228-185.73v-.51l35.105-16.635-11.736-24.798zM301.556 319.976c84.905 0 153.738-51.688 153.738-115.418h-31.788c0 49.29-54.801 89.243-122.358 89.243-2.194 0-4.388-.051-6.582-.102V70.108l42.197-42.197L308.903 0l-49.85 49.851v238.541c-46.841-12.501-80.262-45.31-80.262-83.834h-30.972c0 63.73 68.832 115.418 153.737 115.418z" fill="#0fbd54"/><path d="M.051 406.31c-.051.102-.051.204-.051.306v-.306h.051z"/><path d="M600 402.738v98.58c0 .154 0 .255-.051.409-1.071 12.246-48.83 22.093-107.611 22.093-41.636 0-77.762-4.95-95.62-12.195-15.155-6.072-31.024-9.898-47.25-9.898H241.654c-12.246 0-24.237 3.316-35.36 8.623-16.685 7.909-54.545 13.47-98.63 13.47-58.782 0-106.54-9.847-107.612-22.093-.051-.154-.051-.255-.051-.409v-98.58c0 11.634 48.218 21.074 107.662 21.074 57.403 0 104.346-8.828 107.458-19.9 28.166 9.185 58.985 14.236 91.233 14.236 28.267 0 55.412-3.878 80.67-11.021 10.307 9.541 53.525 16.685 105.315 16.685 59.444 0 107.662-9.44 107.662-21.074z" fill="#000090"/><path d="M600 406.31v.306c0-.102 0-.204-.051-.306H600z"/><path d="M0 502.441h.051C0 502.288 0 502.186 0 502.033v.408zm599.949 0H600v-.408c0 .153 0 .255-.051.408zM54.934 454.627c-4.36-1.689-6.281-3.139-6.281-6.094 0-2.157 1.64-4.733 5.952-4.733 2.86 0 4.968.891 5.952 1.5l1.126-3.33c-1.36-.796-3.75-1.544-6.936-1.544-6.141 0-10.22 3.653-10.22 8.576 0 4.405 3.19 7.125 8.344 8.999 4.265 1.594 5.952 3.328 5.952 6.233 0 3.19-2.437 5.392-6.607 5.392-2.813 0-5.437-.892-7.265-2.063l-1.08 3.423c1.688 1.121 5.016 2.058 8.063 2.058 7.452 0 11.015-4.26 11.015-9.138 0-4.64-2.671-7.216-8.015-9.279zm33.099 3.982c0-4.5-1.69-9.234-8.626-9.234-2.86 0-5.623.798-7.499 1.969l.937 2.765c1.594-1.076 3.797-1.684 5.954-1.684 4.64-.05 5.155 3.373 5.155 5.202v.468c-8.765-.05-13.64 2.95-13.64 8.436 0 3.28 2.344 6.513 6.938 6.513 3.234 0 5.67-1.59 6.936-3.373h.14l.329 2.86h3.702c-.234-1.545-.326-3.468-.326-5.436v-8.486zm-3.987 6.283c0 .374-.044.842-.187 1.31-.655 1.924-2.576 3.798-5.575 3.798-2.063 0-3.845-1.216-3.845-3.937 0-4.405 5.108-5.202 9.607-5.107v3.936zm14.164 7.639h4.126v-22.687H98.21v22.687zm2.063-31.636c-1.547 0-2.579 1.17-2.579 2.576s.985 2.531 2.484 2.531c1.642 0 2.626-1.126 2.626-2.531 0-1.45-1.031-2.576-2.53-2.576zm23.721 8.48c-3.75 0-6.373 2.113-7.5 4.22h-.094l-.234-3.751h-3.655c.142 1.878.187 3.752.187 6.144v16.543h4.126v-13.638c0-.703.092-1.405.281-1.924.75-2.297 2.858-4.215 5.531-4.215 3.89 0 5.25 3.044 5.25 6.702v13.075h4.123v-13.499c0-7.778-4.873-9.657-8.015-9.657zm23.021-4.967l-4.029 1.22v4.216h-3.515v3.144h3.515v12.373c0 2.67.469 4.683 1.592 5.95.985 1.08 2.532 1.733 4.453 1.733 1.594 0 2.86-.279 3.657-.558l-.187-3.144c-.61.19-1.265.284-2.392.284-2.297 0-3.094-1.595-3.094-4.405v-12.233h5.907v-3.144h-5.907v-5.436zm22.787 4.967c-6.607 0-10.639 5.347-10.639 12.189s4.171 11.48 11.155 11.48c3.61 0 6.141-.792 7.593-1.45l-.75-2.955c-1.5.658-3.328 1.171-6.28 1.171-4.171 0-7.686-2.292-7.781-7.873h15.935c.095-.468.142-1.076.142-1.918 0-4.176-1.92-10.644-9.375-10.644zm-6.655 9.612c.33-2.86 2.11-6.657 6.328-6.657 4.64 0 5.766 4.076 5.718 6.657h-12.046zm23.958 2.387h11.578v-3h-11.578v3zm44.3-20.435l-5.625 15.283c-1.406 3.981-2.532 7.45-3.374 10.638h-.095c-.842-3.283-1.873-6.751-3.186-10.638l-5.39-15.283h-5.204l-2.202 31.592h3.892l.842-13.544c.281-4.783.515-10.03.61-13.967h.092c.892 3.748 2.11 7.779 3.61 12.278l5.155 15.044h3.094l5.579-15.323c1.592-4.36 2.858-8.346 3.984-11.999h.092c0 3.887.281 9.234.516 13.639l.75 13.872h4.03l-1.968-31.592h-5.202zm33.057 17.67c0-4.5-1.69-9.234-8.626-9.234-2.86 0-5.623.798-7.499 1.969l.937 2.765c1.594-1.076 3.797-1.684 5.954-1.684 4.64-.05 5.153 3.373 5.153 5.202v.468c-8.763-.05-13.638 2.95-13.638 8.436 0 3.28 2.344 6.513 6.938 6.513 3.234 0 5.67-1.59 6.934-3.373h.144l.33 2.86h3.702c-.235-1.545-.33-3.468-.33-5.436v-8.486zm-3.987 6.283c0 .374-.044.842-.184 1.31-.658 1.924-2.579 3.798-5.578 3.798-2.063 0-3.845-1.216-3.845-3.937 0-4.405 5.108-5.202 9.607-5.107v3.936zm17.914-10.549h-.14l-.189-4.5h-3.608c.14 2.114.19 4.41.19 7.081v15.607h4.12v-12.094c0-.652.05-1.36.145-1.918.563-3.094 2.621-5.252 5.531-5.252.558 0 .982 0 1.405.095v-3.892c-.373-.045-.702-.095-1.126-.095-2.765 0-5.297 1.924-6.328 4.968zm17.35-13.448c-1.55 0-2.58 1.17-2.58 2.576s.986 2.531 2.486 2.531c1.639 0 2.62-1.126 2.62-2.531 0-1.45-1.026-2.576-2.526-2.576zm-2.063 31.636h4.121v-22.687h-4.12v22.687zm23.482-23.156c-6.612 0-10.643 5.347-10.643 12.189s4.175 11.48 11.157 11.48c3.607 0 6.138-.792 7.593-1.45l-.752-2.955c-1.5.658-3.324 1.171-6.278 1.171-4.171 0-7.689-2.292-7.779-7.873h15.936c.094-.468.14-1.076.14-1.918 0-4.176-1.924-10.644-9.374-10.644zm-6.657 9.612c.329-2.86 2.108-6.657 6.328-6.657 4.64 0 5.766 4.076 5.716 6.657H310.5zm57.667-19.732h-4.076V452.8h-.095c-1.031-1.78-3.328-3.424-6.841-3.424-5.486 0-10.22 4.595-10.175 12.144 0 6.886 4.265 11.525 9.751 11.525 3.703 0 6.423-1.918 7.64-4.45h.139l.189 3.937h3.657c-.094-1.545-.189-3.842-.189-5.86v-27.416zm-4.076 23.764c0 .652-.05 1.215-.19 1.778-.747 3.045-3.278 4.924-6.044 4.924-4.404 0-6.702-3.797-6.702-8.392 0-4.968 2.532-8.72 6.792-8.72 3.095 0 5.347 2.158 5.955 4.734.14.518.19 1.22.19 1.734v3.942zm23.49-13.644c-6.613 0-10.644 5.347-10.644 12.189s4.176 11.48 11.157 11.48c3.607 0 6.139-.792 7.594-1.45l-.753-2.955c-1.5.658-3.323 1.171-6.278 1.171-4.171 0-7.689-2.292-7.779-7.873h15.936c.09-.468.14-1.076.14-1.918 0-4.176-1.924-10.644-9.374-10.644zm-6.658 9.612c.33-2.86 2.108-6.657 6.329-6.657 4.639 0 5.765 4.076 5.715 6.657h-12.044zm58.13-4.828c0 4.918.095 8.765.469 12.98l-.14.05c-1.455-3.234-3.328-6.562-5.625-10.265l-10.076-15.985h-4.5v31.592h3.843v-13.499c0-5.247-.045-9.044-.28-13.03l.14-.045c1.545 3.418 3.658 7.031 5.86 10.544l10.03 16.03h4.121v-31.592h-3.841v13.22zm23.355-4.784c-6.612 0-10.643 5.347-10.643 12.189s4.176 11.48 11.157 11.48c3.607 0 6.139-.792 7.594-1.45l-.753-2.955c-1.5.658-3.323 1.171-6.278 1.171-4.171 0-7.689-2.292-7.779-7.873h15.936c.094-.468.14-1.076.14-1.918 0-4.176-1.924-10.644-9.374-10.644zm-6.657 9.612c.33-2.86 2.108-6.657 6.329-6.657 4.639 0 5.765 4.076 5.715 6.657h-12.044zm43.645-9.143h-4.125v13.877c0 .797-.14 1.545-.374 2.108-.748 1.873-2.671 3.797-5.436 3.797-3.703 0-5.063-2.955-5.063-7.265v-12.517h-4.126v13.264c0 7.923 4.265 9.936 7.828 9.936 4.031 0 6.468-2.387 7.5-4.215h.094l.234 3.702h3.658c-.14-1.779-.19-3.842-.19-6.234v-16.453zm10.37 22.687h4.12v-22.687h-4.12v22.687zm2.063-31.636c-1.55 0-2.581 1.17-2.581 2.576s.986 2.531 2.486 2.531c1.64 0 2.621-1.126 2.621-2.531 0-1.45-1.026-2.576-2.526-2.576zm12.422 31.636h4.12v-33.276h-4.12v33.276zm14.585 0h4.12v-33.276h-4.12v33.276zm24.047-9.373c-.563 1.64-1.031 3.373-1.455 4.734h-.094a57.711 57.711 0 0 0-1.5-4.64l-4.918-13.408h-4.5l8.341 20.908c.235.513.33.842.33 1.076s-.14.563-.33.982c-.986 2.113-2.341 3.707-3.468 4.594-1.22 1.032-2.576 1.69-3.607 2.018l1.031 3.418c1.032-.184 3-.886 5.058-2.62 2.815-2.487 4.828-6.423 7.783-14.202l6.189-16.174h-4.36l-4.5 13.314z" fill="#fff"/></svg>